<?xml version="1.0" standalone="no"?>
<!DOCTYPE svg PUBLIC "-//W3C//DTD SVG 20010904//EN"
 "http://www.w3.org/TR/2001/REC-SVG-20010904/DTD/svg10.dtd">
<svg version="1.0" xmlns="http://www.w3.org/2000/svg"
 width="262.000000pt" height="300.000000pt" viewBox="0 0 262.000000 300.000000"
 preserveAspectRatio="xMidYMid meet">
<metadata>
Created by potrace 1.16, written by Peter Selinger 2001-2019
</metadata>
<g transform="translate(0.000000,300.000000) scale(0.100000,-0.100000)"
fill="#000000" stroke="none">
<path d="M431 2985 c-24 -7 -54 -24 -67 -36 -24 -22 -24 -26 -24 -194 l0 -171
28 -26 c29 -28 117 -62 139 -54 16 7 16 6 -2 -37 -8 -20 -15 -44 -15 -54 1
-16 2 -16 18 2 9 11 26 27 36 35 18 14 19 13 14 -27 -6 -39 -5 -42 13 -33 24
13 39 42 42 79 2 29 3 30 77 36 113 10 253 33 370 61 221 53 259 52 525 -6
122 -27 208 -41 348 -55 57 -6 57 -7 57 -39 0 -19 9 -45 21 -60 l20 -26 -26 0
c-14 0 -28 -7 -31 -15 -9 -22 15 -83 39 -100 28 -20 84 -19 104 1 15 14 13 21
-16 80 -18 36 -30 70 -28 77 5 14 47 -51 47 -73 0 -19 28 -60 40 -60 5 0 11
10 13 23 l4 22 2 -22 c1 -31 13 -29 34 6 26 45 22 92 -11 124 -33 31 -47 34
-61 10 -8 -13 -10 -14 -11 -4 0 8 -7 22 -15 31 -14 15 -11 18 37 28 75 18 115
46 128 90 5 20 10 97 10 170 0 157 -8 181 -72 207 -64 27 -235 32 -334 10
-100 -22 -134 -52 -134 -118 l0 -45 -57 13 c-32 6 -92 21 -133 33 -184 51
-285 52 -471 6 -57 -15 -130 -32 -161 -39 l-58 -13 0 47 c0 62 -26 87 -117
112 -81 23 -255 25 -322 4z m344 -51 c54 -21 70 -49 39 -71 -30 -22 -40 -16
-36 20 4 33 2 34 -41 46 -25 7 -54 10 -66 6 -34 -10 -54 -49 -49 -95 l4 -40
-46 0 c-84 0 -181 36 -198 74 -14 31 1 51 53 71 59 22 272 15 340 -11z m1431
4 c90 -49 16 -122 -136 -135 l-70 -6 0 51 c0 76 -42 106 -114 82 -32 -10 -36
-15 -36 -46 0 -37 -14 -43 -44 -21 -31 22 -12 54 42 71 77 24 82 25 207 22 90
-1 128 -6 151 -18z m-709 -98 c48 -11 112 -27 142 -35 101 -28 281 -47 397
-43 94 4 119 8 163 30 l51 25 0 -101 c0 -119 -8 -137 -77 -160 -85 -29 -305
-15 -533 35 -308 66 -362 69 -547 24 -220 -53 -464 -85 -563 -75 -36 4 -83 16
-106 28 -40 20 -41 23 -48 83 -3 34 -6 86 -6 116 0 53 0 53 23 39 12 -8 49
-22 82 -32 105 -30 387 -7 565 46 174 53 293 58 457 20z"/>
<path d="M1061 2781 c-11 -7 -12 -20 -1 -75 l12 -66 37 6 c20 4 44 13 54 22
23 21 23 84 -1 105 -20 18 -78 22 -101 8z"/>
<path d="M1610 2770 c-31 -31 -36 -68 -13 -98 36 -48 96 -42 119 13 18 43 5
81 -31 95 -38 14 -53 12 -75 -10z"/>
<path d="M984 2743 l7 -28 -19 24 c-14 17 -24 22 -41 16 -13 -4 -20 -12 -18
-20 3 -7 8 -33 12 -57 9 -57 18 -73 40 -64 13 4 16 14 12 34 l-5 27 18 -23
c23 -28 60 -30 60 -2 0 10 -5 42 -11 70 -9 44 -14 50 -36 50 -22 0 -24 -3 -19
-27z"/>
<path d="M666 2699 c-33 -26 -35 -75 -6 -107 23 -25 56 -28 96 -10 24 11 26
16 21 57 -8 74 -59 101 -111 60z"/>
<path d="M2083 2713 l-33 -4 0 -70 0 -69 60 0 c61 0 71 8 51 39 -6 9 -18 12
-37 7 -21 -5 -25 -4 -14 4 8 5 23 10 33 10 14 0 17 9 17 45 0 49 3 48 -77 38z"/>
<path d="M1148 2531 c-42 -14 -108 -54 -108 -65 1 -6 20 -33 44 -60 l44 -50
-20 -27 c-11 -15 -22 -47 -25 -72 -5 -42 -7 -45 -47 -57 -56 -16 -116 -51
-116 -67 0 -18 43 -26 102 -19 46 6 50 5 43 -11 -16 -37 -16 -60 -1 -72 13
-11 9 -20 -34 -72 -122 -146 -157 -281 -111 -427 21 -68 67 -136 88 -128 7 3
13 -1 13 -9 0 -36 230 -195 282 -195 11 0 16 -45 26 -237 7 -131 15 -277 19
-324 l6 -86 -75 -6 c-40 -3 -106 -16 -145 -29 -64 -22 -75 -23 -119 -11 -99
26 -342 63 -454 69 -93 5 -117 9 -124 22 -37 69 -157 139 -248 144 l-43 3 2
-60 c2 -43 10 -76 30 -115 27 -53 28 -56 11 -73 -16 -15 -18 -38 -18 -210 0
-221 0 -221 82 -258 48 -21 67 -24 203 -24 128 0 160 3 222 23 95 29 116 55
111 134 -2 43 0 58 10 58 7 0 10 -4 7 -10 -4 -6 5 -10 20 -10 14 0 96 -18 183
-41 146 -37 172 -41 367 -50 228 -11 273 -9 383 20 71 19 72 19 72 -1 0 -48
43 -80 145 -109 75 -21 326 -18 385 4 57 23 90 54 91 86 0 26 0 26 9 4 20 -49
25 -17 22 129 -3 114 -7 157 -18 169 -8 8 -14 29 -14 46 0 17 -7 36 -15 43
-13 11 -13 15 4 39 32 46 56 151 45 197 -6 25 -9 26 -57 20 -106 -15 -196 -65
-244 -137 -20 -30 -32 -39 -55 -39 l-29 0 22 23 c74 77 63 211 -24 295 l-33
33 -47 -36 c-87 -66 -100 -139 -44 -246 40 -78 57 -86 58 -27 1 24 4 54 8 68
7 21 9 18 15 -25 4 -27 9 -58 10 -67 3 -14 -6 -18 -43 -23 -157 -19 -285 -40
-421 -70 -85 -18 -180 -36 -210 -40 -30 -3 -64 -9 -75 -11 -11 -3 2 7 29 22
40 21 58 25 93 20 44 -6 57 4 24 20 -18 9 -18 10 1 39 l20 30 -6 -27 c-10 -43
12 -33 31 13 17 43 18 44 91 23 34 -10 26 10 -12 29 -24 11 -33 21 -30 34 2
10 15 89 29 176 l26 158 -85 93 c-63 69 -79 92 -63 89 12 -2 56 3 97 11 l74
16 35 -28 c45 -36 87 -113 107 -195 9 -37 21 -67 26 -67 12 0 28 45 43 125
l13 70 1 -90 c2 -88 2 -89 19 -66 65 93 79 205 38 316 -34 94 -63 133 -163
217 -156 132 -251 190 -411 248 -77 28 -77 28 -85 71 -10 54 -1 160 17 203 7
18 30 50 50 71 40 43 69 93 80 138 6 25 10 27 62 27 l57 0 -5 48 c-9 91 -76
185 -163 227 -44 21 -162 30 -207 16z m119 -243 c63 -59 -4 -165 -87 -137 -51
18 -68 73 -27 89 21 8 21 9 -5 9 -31 1 -37 21 -13 41 12 10 18 10 30 0 12 -10
15 -10 15 4 0 25 59 21 87 -6z m-92 -389 c-40 -117 -43 -182 -10 -261 5 -14 2
-18 -14 -18 -18 0 -20 -4 -15 -26 6 -24 5 -26 -16 -19 -19 6 -21 4 -15 -16 6
-18 4 -21 -9 -16 -13 5 -15 2 -10 -18 5 -20 3 -24 -10 -19 -11 4 -16 1 -16
-10 0 -30 -19 -16 -29 22 -23 81 -7 181 46 287 28 56 113 179 119 172 2 -2 -7
-37 -21 -78z m296 -308 c154 -53 308 -178 383 -313 14 -26 6 -20 -39 27 -52
55 -55 48 -8 -20 36 -52 5 -41 -61 23 -41 40 -77 72 -80 72 -4 0 23 -36 60
-80 60 -73 75 -101 35 -66 -9 7 -38 26 -66 41 l-50 28 47 -49 47 -49 -161 52
c-176 58 -235 87 -272 136 -50 67 -57 171 -13 202 30 21 112 19 178 -4z m0
-515 l87 -103 -22 -150 c-20 -143 -22 -151 -48 -166 -15 -8 -40 -34 -57 -57
l-30 -41 -5 33 c-3 18 -8 112 -11 208 -3 96 -8 221 -11 278 -4 57 -3 102 2
101 5 0 48 -47 95 -103z m-1027 -543 c20 -4 27 -3 22 5 -5 8 2 10 21 7 15 -3
80 -10 143 -15 63 -6 178 -23 255 -39 l140 -27 -125 4 c-96 3 -133 1 -161 -10
-30 -13 -38 -13 -54 -2 -65 48 -145 -35 -95 -99 12 -15 28 -27 36 -27 9 0 14
-10 14 -28 l0 -28 -106 4 c-119 5 -205 -9 -276 -43 l-48 -23 0 125 c0 68 4
133 10 143 9 17 11 17 47 -1 36 -18 132 -27 146 -13 4 4 -15 21 -41 38 l-47
31 30 6 c17 4 37 5 45 2 8 -2 28 -7 44 -10z m1696 -7 c0 -13 7 -13 51 0 77 23
93 13 34 -21 -27 -16 -53 -33 -56 -37 -3 -5 -13 -6 -22 -2 -10 3 -31 1 -47 -6
-25 -10 -32 -10 -45 4 -22 22 -35 20 -35 -4 0 -24 -13 -26 -30 -5 -8 10 -30
15 -61 15 -46 0 -49 -2 -49 -25 0 -16 -6 -25 -15 -25 -9 0 -15 9 -15 21 0 20
-4 21 -47 14 -60 -9 -66 -13 -60 -36 6 -23 -6 -25 -23 -4 -23 28 -100 8 -100
-27 0 -15 -8 -18 -57 -17 -79 0 -266 34 -233 41 14 3 77 15 140 27 63 11 182
34 264 51 146 30 265 46 359 49 35 1 47 -3 47 -13z m-1015 -92 c44 -10 103
-17 130 -17 34 0 42 -2 25 -6 -34 -9 160 -44 265 -47 44 -2 87 -5 95 -8 8 -3
25 -6 38 -8 38 -5 24 -23 -16 -20 l-37 3 21 -21 c25 -26 68 -19 86 13 9 17 7
24 -12 39 -12 10 -18 18 -14 18 5 0 19 3 30 6 18 5 22 0 28 -30 7 -38 10 -39
69 -30 49 9 43 30 -7 26 -28 -3 -37 0 -34 10 3 7 17 14 31 16 15 2 27 10 27
18 0 8 9 14 20 14 16 0 20 -7 20 -35 0 -24 5 -35 15 -35 9 0 15 9 15 25 0 32
13 32 39 -1 11 -14 28 -24 37 -22 14 3 14 6 -4 28 -16 21 -18 29 -8 42 7 9 20
18 31 20 15 2 22 -7 33 -44 8 -29 19 -48 28 -48 8 0 25 25 39 55 17 40 29 55
44 55 18 0 19 -2 5 -52 -7 -29 -10 -56 -6 -59 4 -4 26 -10 50 -14 48 -8 59 10
12 20 -17 4 -30 13 -30 22 0 11 7 13 29 8 17 -3 32 -2 36 5 4 6 -6 13 -24 16
-45 9 -41 34 4 27 45 -7 47 12 3 23 -29 7 -25 9 32 12 37 1 84 -3 105 -10 l40
-13 3 -124 c3 -122 2 -124 -17 -107 -99 90 -409 86 -790 -11 -130 -33 -194
-44 -246 -44 -38 1 -86 1 -105 2 -21 0 -30 3 -21 8 18 11 -68 33 -144 36 -33
2 -67 5 -75 8 -8 3 -33 8 -55 10 -22 3 -102 15 -177 28 l-138 24 0 28 c0 19
10 39 31 58 23 21 30 36 27 56 -3 29 1 31 40 18 14 -5 21 -13 18 -24 -16 -59
-17 -81 -2 -81 10 0 18 15 23 43 7 33 13 43 31 45 35 5 25 21 -18 28 -22 4
-40 11 -40 17 0 15 270 1 365 -19z m1105 -193 c31 -5 71 -16 90 -25 35 -15 35
-15 5 -10 -20 3 -13 -3 23 -17 55 -23 75 -55 55 -88 -47 -75 -383 -83 -501
-11 -40 24 -43 56 -6 70 43 17 50 13 46 -25 -4 -30 -1 -36 23 -45 40 -15 111
-12 129 6 10 9 16 33 16 59 0 42 2 44 33 50 17 3 57 7 87 9 30 1 16 3 -32 2
-87 -1 -106 4 -93 23 8 13 52 14 125 2z m-1720 -63 c0 -77 16 -98 76 -98 60 0
94 15 94 41 0 12 8 28 18 36 16 13 15 14 -5 8 -17 -5 -23 -2 -23 9 0 22 15 20
50 -6 60 -44 31 -79 -90 -109 -69 -18 -105 -21 -204 -17 -106 3 -127 7 -166
29 -49 26 -59 49 -40 85 23 42 138 81 243 83 l47 1 0 -62z m1330 12 c0 -26 -5
-30 -42 -41 -138 -37 -251 -48 -328 -32 -28 5 -14 11 101 41 154 39 239 60
257 61 7 1 12 -11 12 -29z"/>
<path d="M2223 2307 c-33 -50 -37 -89 -14 -142 23 -51 28 -54 41 -22 9 22 9
22 10 -3 1 -24 1 -24 35 12 52 56 45 115 -20 170 -27 23 -27 23 -52 -15z"/>
<path d="M2040 2194 c0 -37 5 -51 29 -75 24 -24 38 -29 78 -29 l48 0 -30 26
c-29 25 -29 25 -3 10 15 -9 32 -16 38 -16 16 0 12 32 -10 67 -23 39 -67 63
-115 63 -35 0 -35 0 -35 -46z"/>
<path d="M2317 2148 c-31 -41 -47 -80 -47 -118 0 -39 30 -112 44 -107 6 2 19
24 28 48 18 48 24 35 8 -20 -13 -47 -6 -50 31 -15 39 37 59 75 59 112 0 35
-57 125 -82 130 -9 2 -27 -11 -41 -30z"/>
<path d="M232 2135 c-50 -56 -53 -115 -11 -169 27 -34 37 -33 31 4 -2 16 -1
42 3 57 7 27 7 27 20 -15 24 -79 24 -80 41 -58 31 43 7 166 -39 204 -12 10
-20 6 -45 -23z"/>
<path d="M2076 2064 c-11 -28 -6 -84 10 -115 9 -18 32 -39 57 -50 l42 -20 -37
7 c-35 6 -39 4 -49 -22 -6 -16 -9 -53 -7 -82 4 -41 11 -59 33 -82 16 -16 38
-33 49 -37 20 -6 20 -7 -4 -13 -44 -11 -66 -121 -35 -180 8 -16 32 -41 53 -55
l37 -25 -31 6 c-29 6 -33 3 -53 -38 -25 -52 -27 -117 -6 -158 14 -28 124 -115
133 -105 2 2 -3 22 -12 45 -26 66 -18 79 14 23 32 -57 44 -63 59 -35 43 81 11
181 -79 245 -20 14 -20 15 -3 7 48 -23 56 -13 27 35 -34 59 -26 67 16 15 46
-58 60 -53 60 20 0 34 -6 73 -14 88 -15 29 -58 71 -91 91 -18 11 -17 12 8 6
33 -7 33 -2 3 38 -42 57 -41 63 4 25 24 -21 48 -38 53 -38 5 0 8 26 5 58 -5
71 -31 111 -90 141 -39 19 -41 21 -15 21 15 0 27 5 27 10 0 6 -4 10 -9 10 -5
0 -20 15 -32 33 l-23 32 25 -21 c13 -12 35 -27 48 -34 24 -12 24 -12 19 35 -7
54 -34 89 -93 116 -50 23 -91 24 -99 3z"/>
<path d="M475 2061 c-44 -11 -73 -29 -90 -55 -20 -29 -36 -86 -26 -86 5 0 29
16 55 35 25 20 46 33 46 30 0 -12 -23 -50 -44 -73 l-21 -24 30 8 c45 11 83 32
95 53 5 11 10 42 10 70 0 54 -1 55 -55 42z"/>
<path d="M2406 1947 c-47 -58 -69 -120 -62 -177 5 -51 24 -100 38 -100 5 0 20
24 34 53 l26 52 -5 -40 c-3 -22 -8 -48 -12 -57 -13 -33 17 -19 66 30 54 54 69
101 50 161 -14 47 -66 121 -85 121 -8 0 -31 -20 -50 -43z"/>
<path d="M132 1946 c-66 -75 -67 -159 -2 -228 22 -23 42 -39 44 -37 2 2 1 24
-4 49 -5 25 -6 58 -3 74 6 27 8 24 29 -34 29 -80 40 -92 54 -56 28 74 1 183
-60 241 l-27 26 -31 -35z"/>
<path d="M436 1865 c-83 -29 -130 -87 -124 -152 l3 -38 54 50 c53 49 54 49 47
20 -4 -16 -19 -45 -32 -62 -29 -38 -18 -41 42 -14 72 33 103 95 86 171 -9 40
-22 45 -76 25z"/>
<path d="M2478 1678 c-61 -58 -90 -117 -91 -187 0 -65 10 -104 26 -98 7 2 27
25 45 51 36 54 42 43 12 -23 -11 -24 -18 -47 -15 -50 10 -9 95 40 116 67 29
37 42 94 35 145 -7 44 -57 137 -74 137 -5 0 -30 -19 -54 -42z"/>
<path d="M61 1671 c-29 -41 -45 -110 -37 -156 6 -29 20 -52 52 -82 54 -52 83
-59 60 -15 -16 30 -33 132 -22 132 3 0 13 -17 21 -37 24 -58 66 -108 76 -92
18 29 10 114 -17 167 -24 48 -83 112 -104 112 -5 0 -18 -13 -29 -29z"/>
<path d="M378 1615 c-55 -29 -84 -64 -99 -118 -11 -41 -5 -87 11 -87 5 0 28
25 52 55 49 63 61 53 29 -21 -12 -26 -19 -49 -17 -51 2 -3 22 5 44 16 77 39
106 105 80 183 -18 52 -36 57 -100 23z"/>
<path d="M2492 1366 c-81 -60 -114 -126 -110 -217 l3 -64 53 51 c28 28 52 49
52 47 0 -11 -35 -71 -53 -90 -29 -33 -16 -38 45 -18 102 34 151 117 134 225
-8 50 -36 110 -52 110 -6 0 -39 -20 -72 -44z"/>
<path d="M30 1358 c-23 -51 -26 -137 -6 -176 26 -49 96 -102 135 -102 4 0 -5
25 -21 56 -15 31 -28 68 -28 82 0 22 4 19 36 -24 20 -27 47 -57 60 -67 l24
-18 0 49 c0 87 -55 170 -149 225 l-31 18 -20 -43z"/>
<path d="M389 1370 c-79 -42 -122 -128 -100 -200 6 -22 16 -40 20 -40 5 0 24
29 42 65 19 36 37 65 40 65 7 0 -8 -117 -17 -131 -10 -18 9 -9 47 22 71 56 86
117 48 196 -23 48 -29 50 -80 23z"/>
<path d="M2115 1123 c-74 -80 -69 -158 15 -247 27 -28 51 -48 54 -45 3 3 1 21
-4 40 -6 18 -10 47 -9 64 0 34 3 29 34 -57 9 -27 20 -48 25 -48 15 0 49 65 56
107 11 71 -29 148 -107 204 l-29 20 -35 -38z"/>
<path d="M418 1110 c-42 -35 -78 -103 -78 -149 0 -35 36 -115 49 -107 4 3 16
33 26 68 10 35 22 67 25 71 11 12 22 -76 14 -107 -3 -14 -3 -26 0 -26 14 0 67
68 82 106 14 37 14 44 0 78 -20 49 -54 96 -69 96 -7 0 -29 -13 -49 -30z"/>
<path d="M2491 1068 c-101 -40 -177 -130 -196 -231 -9 -49 5 -48 79 3 56 39
57 40 37 11 -12 -16 -35 -41 -51 -55 -17 -13 -30 -28 -30 -32 0 -12 116 3 148
20 76 39 116 147 93 250 -7 31 -15 56 -19 55 -4 0 -31 -10 -61 -21z"/>
<path d="M66 1062 c-13 -21 -17 -112 -7 -149 21 -77 101 -142 174 -143 l29 0
-40 45 c-22 26 -45 59 -50 74 -10 28 -8 27 54 -20 90 -68 98 -65 68 24 -20 59
-81 122 -147 153 -55 25 -73 29 -81 16z"/>
<path d="M516 877 c-42 -54 -56 -90 -56 -140 0 -51 24 -110 58 -140 20 -19 21
-18 26 15 3 18 8 60 12 93 l6 59 15 -34 c7 -19 17 -55 20 -79 l6 -44 18 22
c10 12 26 47 35 76 23 72 9 120 -48 169 -23 20 -47 36 -54 36 -7 0 -24 -15
-38 -33z"/>
</g>
</svg>
